<?xml version="1.0" encoding="UTF-8"?>
<svg xmlns="http://www.w3.org/2000/svg" xmlns:xlink="http://www.w3.org/1999/xlink" width="32pt" height="32pt" viewBox="0 0 32 32">
<path fill-rule="nonzero" fill="rgb(13.725281%, 12.156677%, 12.548828%)" fill-opacity="1" d="M 16 3.960938 C 9.363281 3.960938 3.960938 9.363281 3.960938 16.003906 C 3.960938 22.640625 9.363281 28.039062 16 28.039062 C 22.640625 28.039062 28.039062 22.640625 28.039062 16.003906 C 28.039062 9.363281 22.640625 3.960938 16 3.960938 M 16 32.042969 C 7.15625 32.042969 -0.0390625 24.84375 -0.0390625 16.003906 C -0.0390625 7.15625 7.15625 -0.0390625 16 -0.0390625 C 24.847656 -0.0390625 32.039062 7.15625 32.039062 16.003906 C 32.039062 24.84375 24.847656 32.042969 16 32.042969 "/>
<path fill="none" stroke-width="1" stroke-linecap="butt" stroke-linejoin="miter" stroke="rgb(100%, 100%, 100%)" stroke-opacity="1" stroke-dasharray="7.609 7.609" stroke-miterlimit="10" d="M -0.00194375 -0.00190625 C -0.00194375 -8.025344 -6.509756 -14.533156 -14.5371 -14.533156 C -22.564444 -14.533156 -29.072256 -8.025344 -29.072256 -0.00190625 C -29.072256 8.029344 -22.564444 14.537156 -14.5371 14.537156 C -6.509756 14.537156 -0.00194375 8.029344 -0.00194375 -0.00190625 Z M -0.00194375 -0.00190625 " transform="matrix(1, 0, 0, -1, 30.5371, 16.002)"/>
<path fill="none" stroke-width="0.488" stroke-linecap="butt" stroke-linejoin="miter" stroke="rgb(100%, 100%, 100%)" stroke-opacity="1" stroke-miterlimit="10" d="M 0.0019125 -0.00190625 C 0.0019125 -8.388625 -6.802775 -15.189406 -15.1934 -15.189406 C -23.584025 -15.189406 -30.384806 -8.388625 -30.384806 -0.00190625 C -30.384806 8.392625 -23.584025 15.193406 -15.1934 15.193406 C -6.802775 15.193406 0.0019125 8.392625 0.0019125 -0.00190625 Z M 0.0019125 -0.00190625 " transform="matrix(1, 0, 0, -1, 31.1934, 16.002)"/>
</svg>
