<?xml version="1.0" encoding="UTF-8"?>
<svg xmlns="http://www.w3.org/2000/svg" xmlns:xlink="http://www.w3.org/1999/xlink" width="32pt" height="32pt" viewBox="0 0 32 32">
<path fill="none" stroke-width="2" stroke-linecap="round" stroke-linejoin="round" stroke="rgb(0%, 0%, 0%)" stroke-opacity="1" stroke-miterlimit="10" d="M 0 0 L 60 0 L 60 34 L 0 34 Z M 0 0 " transform="matrix(0.5, 0, 0, 0.5, 0.5, 9.5)"/>
<path fill="none" stroke-width="2" stroke-linecap="round" stroke-linejoin="round" stroke="rgb(0%, 0%, 0%)" stroke-opacity="1" stroke-miterlimit="10" d="M 0 0 L 52 0 Z M 0 0 " transform="matrix(0.5, 0, 0, 0.5, 2.5, 7.5)"/>
<path fill="none" stroke-width="2" stroke-linecap="round" stroke-linejoin="round" stroke="rgb(0%, 0%, 0%)" stroke-opacity="1" stroke-miterlimit="10" d="M 0 0 L 44 0 Z M 0 0 " transform="matrix(0.5, 0, 0, 0.5, 4.5, 5.5)"/>
<path fill="none" stroke-width="2" stroke-linecap="round" stroke-linejoin="round" stroke="rgb(0%, 0%, 0%)" stroke-opacity="1" stroke-miterlimit="10" d="M 8 0 L 4 0 C 4 2.210938 2.210938 4 0 4 L 0 8 " transform="matrix(0.5, 0, 0, 0.5, 2.5, 11.5)"/>
<path fill="none" stroke-width="2" stroke-linecap="round" stroke-linejoin="round" stroke="rgb(0%, 0%, 0%)" stroke-opacity="1" stroke-miterlimit="10" d="M 0 8 L 4 8 C 4 5.789062 5.789062 4 8 4 L 8 0 " transform="matrix(0.5, 0, 0, 0.5, 24.5, 20.5)"/>
<path fill="none" stroke-width="2" stroke-linecap="round" stroke-linejoin="round" stroke="rgb(0%, 0%, 0%)" stroke-opacity="1" stroke-miterlimit="10" d="M 0 0 L 4 0 C 4 2.210938 5.789062 4 8 4 L 8 8 " transform="matrix(0.5, 0, 0, 0.5, 24.5, 11.5)"/>
<path fill="none" stroke-width="2" stroke-linecap="round" stroke-linejoin="round" stroke="rgb(0%, 0%, 0%)" stroke-opacity="1" stroke-miterlimit="10" d="M 8 8 L 4 8 C 4 5.789062 2.210938 4 0 4 L 0 0 " transform="matrix(0.5, 0, 0, 0.5, 2.5, 20.5)"/>
<path fill="none" stroke-width="2" stroke-linecap="round" stroke-linejoin="round" stroke="rgb(0%, 0%, 0%)" stroke-opacity="1" stroke-miterlimit="10" d="M 0 0 L 12 0 Z M 0 0 " transform="matrix(0.5, 0, 0, 0.5, 12.5, 12.5)"/>
<path fill="none" stroke-width="2" stroke-linecap="round" stroke-linejoin="round" stroke="rgb(0%, 0%, 0%)" stroke-opacity="1" stroke-miterlimit="10" d="M 0 0 L 12 0 Z M 0 0 " transform="matrix(0.5, 0, 0, 0.5, 12.5, 14.5)"/>
<path fill="none" stroke-width="2" stroke-linecap="round" stroke-linejoin="round" stroke="rgb(0%, 0%, 0%)" stroke-opacity="1" stroke-miterlimit="10" d="M 0 12 L 4 12 C 7.3125 12 10 9.3125 10 6 C 10 2.6875 7.3125 0 4 0 " transform="matrix(0.5, 0, 0, 0.5, 12.5, 12.5)"/>
<path fill="none" stroke-width="2" stroke-linecap="round" stroke-linejoin="round" stroke="rgb(0%, 0%, 0%)" stroke-opacity="1" stroke-miterlimit="10" d="M 0 0 L 10 10 Z M 0 0 " transform="matrix(0.5, 0, 0, 0.5, 12.5, 18.5)"/>
</svg>
