<?xml version="1.0" encoding="UTF-8"?>
<svg xmlns="http://www.w3.org/2000/svg" xmlns:xlink="http://www.w3.org/1999/xlink" width="32pt" height="32pt" viewBox="0 0 32 32">
<path fill="none" stroke-width="2" stroke-linecap="round" stroke-linejoin="round" stroke="rgb(0%, 0%, 0%)" stroke-opacity="1" stroke-miterlimit="10" d="M 0 18 C 0 19.03125 0.523438 19.945312 1.320312 20.484375 L 23.242188 35.429688 C 23.757812 35.757812 24.34375 36 25 36 C 26.65625 36 28 34.65625 28 33 L 28 3 C 28 1.34375 26.65625 0 25 0 C 24.34375 0 23.757812 0.242188 23.242188 0.570312 L 1.320312 15.515625 C 0.523438 16.054688 0 16.96875 0 18 Z M 0 18 " transform="matrix(0.5, 0, 0, 0.5, 1.5, 7.5)"/>
<path fill="none" stroke-width="2" stroke-linecap="round" stroke-linejoin="round" stroke="rgb(0%, 0%, 0%)" stroke-opacity="1" stroke-miterlimit="10" d="M 0 18 C 0 19.03125 0.523438 19.945312 1.320312 20.484375 L 23.242188 35.429688 C 23.757812 35.757812 24.34375 36 25 36 C 26.65625 36 28 34.65625 28 33 L 28 3 C 28 1.34375 26.65625 0 25 0 C 24.34375 0 23.757812 0.242188 23.242188 0.570312 L 1.320312 15.515625 C 0.523438 16.054688 0 16.96875 0 18 Z M 0 18 " transform="matrix(0.5, 0, 0, 0.5, 16.5, 7.5)"/>
</svg>
