<?xml version="1.0" encoding="UTF-8"?>
<svg xmlns="http://www.w3.org/2000/svg" xmlns:xlink="http://www.w3.org/1999/xlink" width="32pt" height="32pt" viewBox="0 0 32 32">
<path fill="none" stroke-width="1" stroke-linecap="round" stroke-linejoin="round" stroke="rgb(0%, 0%, 0%)" stroke-opacity="1" stroke-miterlimit="10" d="M 0 0 L -24 0 C -24.828125 0 -25.5 -0.671875 -25.5 -1.5 L -25.5 -16.5 C -25.5 -17.328125 -24.828125 -18 -24 -18 L 0 -18 C 0.828125 -18 1.5 -17.328125 1.5 -16.5 L 1.5 -1.5 C 1.5 -0.671875 0.828125 0 0 0 Z M 0 0 " transform="matrix(1, 0, 0, -1, 28, 5.5)"/>
<path fill="none" stroke-width="1" stroke-linecap="round" stroke-linejoin="round" stroke="rgb(0%, 0%, 0%)" stroke-opacity="1" stroke-miterlimit="10" d="M 0 0 L 7 1 L 14 0 " transform="matrix(1, 0, 0, -1, 9.5, 26.5)"/>
<path fill="none" stroke-width="1" stroke-linecap="round" stroke-linejoin="round" stroke="rgb(0%, 0%, 0%)" stroke-opacity="1" stroke-miterlimit="10" d="M 0 0 L 0 -2 Z M 0 0 " transform="matrix(1, 0, 0, -1, 16.5, 23.5)"/>
<path fill="none" stroke-width="1" stroke-linecap="round" stroke-linejoin="round" stroke="rgb(0%, 0%, 0%)" stroke-opacity="1" stroke-miterlimit="10" d="M -0.00004375 -0.00096875 C 0.390581 -0.00096875 0.703081 -0.313469 0.703081 -0.704094 L 0.703081 -8.446281 L -7.273481 -8.446281 L -7.273481 -0.704094 C -7.273481 -0.313469 -6.957075 -0.00096875 -6.570356 -0.00096875 Z M -0.00004375 -0.00096875 " transform="matrix(1, 0, 0, -1, 19.7852, 8.9795)"/>
<path fill="none" stroke-width="1" stroke-linecap="round" stroke-linejoin="round" stroke="rgb(0%, 0%, 0%)" stroke-opacity="1" stroke-miterlimit="10" d="M 0.00101875 -0.00100625 C 0.00101875 0.389619 0.313519 0.702119 0.704144 0.702119 L 7.274456 0.702119 C 7.661175 0.702119 7.977581 0.389619 7.977581 -0.00100625 " transform="matrix(1, 0, 0, -1, 12.5107, 15.3154)"/>
<path fill="none" stroke-width="1" stroke-linecap="round" stroke-linejoin="round" stroke="rgb(0%, 0%, 0%)" stroke-opacity="1" stroke-miterlimit="10" d="M 0.00101875 -0.00005 C 0.00101875 0.390575 -0.315387 0.703075 -0.702106 0.703075 L -1.643512 0.703075 C -2.030231 0.703075 -2.346637 0.390575 -2.346637 -0.00005 L -2.346637 -5.160206 C -2.346637 -5.550831 -2.030231 -5.867238 -1.643512 -5.867238 L 9.622113 -5.867238 C 10.008831 -5.867238 10.325238 -5.550831 10.325238 -5.160206 L 10.325238 -0.00005 C 10.325238 0.390575 10.008831 0.703075 9.622113 0.703075 L 8.684613 0.703075 C 8.293988 0.703075 7.977581 0.390575 7.977581 -0.00005 " transform="matrix(1, 0, 0, -1, 12.5107, 12.9687)"/>
<path fill="none" stroke-width="1" stroke-linecap="round" stroke-linejoin="round" stroke="rgb(0%, 0%, 0%)" stroke-opacity="1" stroke-miterlimit="10" d="M -0.0009375 -0.0000375 L -0.0009375 -1.878944 L 0.940469 -1.878944 L 1.877969 -0.0000375 Z M -0.0009375 -0.0000375 " transform="matrix(1, 0, 0, -1, 11.1025, 18.8359)"/>
<path fill="none" stroke-width="1" stroke-linecap="round" stroke-linejoin="round" stroke="rgb(0%, 0%, 0%)" stroke-opacity="1" stroke-miterlimit="10" d="M 0.0009375 -0.0000375 L 0.0009375 -1.878944 L -0.936563 -1.878944 L -1.877969 -0.0000375 Z M 0.0009375 -0.0000375 " transform="matrix(1, 0, 0, -1, 21.8975, 18.8359)"/>
</svg>
