<?xml version="1.0" encoding="UTF-8"?>
<svg xmlns="http://www.w3.org/2000/svg" xmlns:xlink="http://www.w3.org/1999/xlink" width="32pt" height="32pt" viewBox="0 0 32 32">
<path fill="none" stroke-width="2" stroke-linecap="round" stroke-linejoin="round" stroke="rgb(0%, 0%, 0%)" stroke-opacity="1" stroke-miterlimit="10" d="M 31 0 C 32.65625 0 34 1.34375 34 3 L 34 36 L 0 36 L 0 3 C 0 1.34375 1.34375 0 3 0 Z M 31 0 " transform="matrix(0.5, 0, 0, 0.5, 7.5, 3.5)"/>
<path fill="none" stroke-width="2" stroke-linecap="round" stroke-linejoin="round" stroke="rgb(0%, 0%, 0%)" stroke-opacity="1" stroke-miterlimit="10" d="M 0 3 C 0 1.34375 1.34375 0 3 0 L 31 0 C 32.65625 0 34 1.34375 34 3 " transform="matrix(0.5, 0, 0, 0.5, 7.5, 15.5)"/>
<path fill="none" stroke-width="2" stroke-linecap="round" stroke-linejoin="round" stroke="rgb(0%, 0%, 0%)" stroke-opacity="1" stroke-miterlimit="10" d="M 10 3 C 10 1.34375 8.65625 0 7 0 L 3 0 C 1.34375 0 0 1.34375 0 3 L 0 25 C 0 26.65625 1.34375 28 3 28 L 51 28 C 52.65625 28 54 26.65625 54 25 L 54 3 C 54 1.34375 52.65625 0 51 0 L 47 0 C 45.34375 0 44 1.34375 44 3 " transform="matrix(0.5, 0, 0, 0.5, 2.5, 10.5)"/>
<path fill="none" stroke-width="2" stroke-linecap="round" stroke-linejoin="round" stroke="rgb(0%, 0%, 0%)" stroke-opacity="1" stroke-miterlimit="10" d="M 0 0 L 0 8 L 4 8 L 8 0 Z M 0 0 " transform="matrix(0.5, 0, 0, 0.5, 4.5, 24.5)"/>
<path fill="none" stroke-width="2" stroke-linecap="round" stroke-linejoin="round" stroke="rgb(0%, 0%, 0%)" stroke-opacity="1" stroke-miterlimit="10" d="M 8 0 L 8 8 L 4 8 L 0 0 Z M 8 0 " transform="matrix(0.5, 0, 0, 0.5, 23.5, 24.5)"/>
</svg>
