<?xml version="1.0" encoding="UTF-8"?>
<svg xmlns="http://www.w3.org/2000/svg" xmlns:xlink="http://www.w3.org/1999/xlink" width="32pt" height="32pt" viewBox="0 0 32 32">
<path fill="none" stroke-width="2" stroke-linecap="round" stroke-linejoin="round" stroke="rgb(100%, 100%, 100%)" stroke-opacity="1" stroke-miterlimit="10" d="M 0 0 L 28 0 L 28 16 L 0 16 Z M 0 0 " transform="matrix(0.5, 0, 0, 0.5, 8.5, 15.5)"/>
<path fill="none" stroke-width="2" stroke-linecap="round" stroke-linejoin="round" stroke="rgb(100%, 100%, 100%)" stroke-opacity="1" stroke-miterlimit="10" d="M 2 0 L 0 0 Z M 2 0 " transform="matrix(0.5, 0, 0, 0.5, 18.5, 21.5)"/>
<path fill="none" stroke-width="2" stroke-linecap="round" stroke-linejoin="round" stroke="rgb(100%, 100%, 100%)" stroke-opacity="1" stroke-miterlimit="10" d="M 2 0 L 0 0 Z M 2 0 " transform="matrix(0.5, 0, 0, 0.5, 18.5, 19.5)"/>
<path fill="none" stroke-width="2" stroke-linecap="round" stroke-linejoin="round" stroke="rgb(100%, 100%, 100%)" stroke-opacity="1" stroke-miterlimit="10" d="M 0 0 L 2 0 Z M 0 0 " transform="matrix(0.5, 0, 0, 0.5, 18.5, 17.5)"/>
<path fill="none" stroke-width="2" stroke-linecap="round" stroke-linejoin="round" stroke="rgb(100%, 100%, 100%)" stroke-opacity="1" stroke-miterlimit="10" d="M 0 4 C 1.101562 4 2 3.101562 2 2 C 2 0.898438 1.101562 0 0 0 " transform="matrix(0.5, 0, 0, 0.5, 19.5, 19.5)"/>
<path fill="none" stroke-width="2" stroke-linecap="round" stroke-linejoin="round" stroke="rgb(100%, 100%, 100%)" stroke-opacity="1" stroke-miterlimit="10" d="M 0 4 C 1.101562 4 2 3.101562 2 2 C 2 0.898438 1.101562 0 0 0 " transform="matrix(0.5, 0, 0, 0.5, 19.5, 17.5)"/>
<path fill="none" stroke-width="2" stroke-linecap="round" stroke-linejoin="round" stroke="rgb(100%, 100%, 100%)" stroke-opacity="1" stroke-miterlimit="10" d="M 4 8 L 0 8 L 0 6 C 0 4.898438 0.898438 4 2 4 C 3.101562 4 4 3.101562 4 2 C 4 0.898438 3.101562 0 2 0 L 0 0 " transform="matrix(0.5, 0, 0, 0.5, 14.5, 17.5)"/>
<path fill="none" stroke-width="2" stroke-linecap="round" stroke-linejoin="round" stroke="rgb(100%, 100%, 100%)" stroke-opacity="1" stroke-miterlimit="10" d="M 0 0 L 4 0 Z M 0 0 " transform="matrix(0.5, 0, 0, 0.5, 10.5, 21.5)"/>
<path fill="none" stroke-width="2" stroke-linecap="round" stroke-linejoin="round" stroke="rgb(100%, 100%, 100%)" stroke-opacity="1" stroke-miterlimit="10" d="M 0 2 L 2 0 L 2 8 " transform="matrix(0.5, 0, 0, 0.5, 10.5, 17.5)"/>
<path fill="none" stroke-width="2" stroke-linecap="round" stroke-linejoin="round" stroke="rgb(100%, 100%, 100%)" stroke-opacity="1" stroke-miterlimit="10" d="M 40 31 L 40 0 L 0 0 L 0 31 C 0 32.65625 1.34375 34 3 34 L 37 34 C 38.65625 34 40 32.65625 40 31 Z M 40 31 " transform="matrix(0.5, 0, 0, 0.5, 5.5, 11.5)"/>
<path fill="none" stroke-width="2" stroke-linecap="round" stroke-linejoin="round" stroke="rgb(100%, 100%, 100%)" stroke-opacity="1" stroke-miterlimit="10" d="M 0 20 L 0 14 C 0 6.265625 6.265625 0 14 0 C 21.734375 0 28 6.265625 28 14 L 28 20 Z M 0 20 " transform="matrix(0.5, 0, 0, 0.5, 8.5, 1.5)"/>
</svg>
