<?xml version="1.0" encoding="UTF-8"?>
<svg xmlns="http://www.w3.org/2000/svg" xmlns:xlink="http://www.w3.org/1999/xlink" width="32pt" height="32pt" viewBox="0 0 32 32">
<path fill="none" stroke-width="2" stroke-linecap="round" stroke-linejoin="round" stroke="rgb(100%, 100%, 100%)" stroke-opacity="1" stroke-miterlimit="10" d="M 51 0 L 3 0 C 1.34375 0 0 1.34375 0 3 L 0 33 C 0 34.65625 1.34375 36 3 36 L 51 36 C 52.65625 36 54 34.65625 54 33 L 54 3 C 54 1.34375 52.65625 0 51 0 Z M 51 0 " transform="matrix(0.5, 0, 0, 0.5, 2.5, 5.5)"/>
<path fill="none" stroke-width="2" stroke-linecap="round" stroke-linejoin="round" stroke="rgb(100%, 100%, 100%)" stroke-opacity="1" stroke-miterlimit="10" d="M 0 2 L 14 0 L 28 2 " transform="matrix(0.5, 0, 0, 0.5, 9.5, 25.5)"/>
<path fill="none" stroke-width="2" stroke-linecap="round" stroke-linejoin="round" stroke="rgb(100%, 100%, 100%)" stroke-opacity="1" stroke-miterlimit="10" d="M 0 0 L 0 4 Z M 0 0 " transform="matrix(0.5, 0, 0, 0.5, 16.5, 23.5)"/>
<path fill="none" stroke-width="2" stroke-linecap="round" stroke-linejoin="round" stroke="rgb(100%, 100%, 100%)" stroke-opacity="1" stroke-miterlimit="10" d="M 16 10.046875 C 16 10.992188 15.429688 11.820312 14.570312 12.3125 L 5.070312 19.53125 C 4.546875 19.828125 3.921875 20 3.25 20 C 1.453125 20 0 18.773438 0 17.265625 L 0 2.742188 C 0 1.226562 1.453125 0 3.25 0 C 3.921875 0 4.546875 0.171875 5.070312 0.46875 L 14.570312 7.773438 C 15.429688 8.265625 16 9.101562 16 10.046875 Z M 16 10.046875 " transform="matrix(0.5, 0, 0, 0.5, 12.5, 9.5)"/>
</svg>
