<?xml version="1.0" encoding="UTF-8"?>
<svg xmlns="http://www.w3.org/2000/svg" xmlns:xlink="http://www.w3.org/1999/xlink" width="32pt" height="32pt" viewBox="0 0 32 32">
<path fill="none" stroke-width="2" stroke-linecap="round" stroke-linejoin="round" stroke="rgb(100%, 100%, 100%)" stroke-opacity="1" stroke-miterlimit="10" d="M 8 5 C 8 7.765625 6.757812 10 4 10 C 1.242188 10 0 7.765625 0 5 C 0 2.234375 1.242188 0 4 0 C 6.757812 0 8 2.234375 8 5 Z M 8 5 " transform="matrix(0.5, 0, 0, 0.5, 14.5, 1.5)"/>
<path fill="none" stroke-width="2" stroke-linecap="round" stroke-linejoin="round" stroke="rgb(100%, 100%, 100%)" stroke-opacity="1" stroke-miterlimit="10" d="M 3.5625 0 L 0.0234375 18.601562 C 0.0078125 18.679688 0 18.765625 0 18.851562 C 0 19.679688 0.671875 20.351562 1.5 20.351562 C 2.273438 20.351562 2.84375 19.757812 3 19.007812 L 7 2.390625 " transform="matrix(0.5, 0, 0, 0.5, 9, 21.5)"/>
<path fill="none" stroke-width="2" stroke-linecap="round" stroke-linejoin="round" stroke="rgb(100%, 100%, 100%)" stroke-opacity="1" stroke-miterlimit="10" d="M 23.867188 3.945312 L 26.226562 9.382812 C 27 10.953125 27.59375 11.703125 28.601562 12.164062 L 34.96875 15.023438 C 35.6875 15.375 36.1875 16.125 35.929688 16.914062 C 35.679688 17.703125 34.835938 18.132812 34.046875 17.882812 L 25.421875 15.09375 C 24.15625 14.640625 23.59375 13.679688 22.984375 12.421875 L 21.609375 9.164062 L 19.734375 18.921875 C 19.375 20.953125 19.476562 22.992188 19.890625 24.945312 C 20.304688 26.898438 23.976562 44.226562 23.976562 44.226562 L 23.945312 44.0625 C 23.984375 44.1875 24 44.320312 24 44.453125 C 24 45.28125 23.328125 45.953125 22.5 45.953125 C 21.789062 45.953125 21.195312 45.460938 21.039062 44.796875 L 16.578125 28.46875 C 16.1875 26.546875 15.171875 25.710938 13.773438 24.640625 L 12 23.328125 C 9.617188 21.445312 9.523438 19.695312 10.320312 16.195312 L 12.523438 4.75 L 7.492188 6.429688 C 6.25 6.859375 5.851562 7.445312 5.5625 8.375 L 2.976562 16.734375 C 2.84375 17.429688 2.234375 17.953125 1.5 17.953125 C 0.671875 17.953125 0 17.28125 0 16.453125 C 0 16.328125 0.015625 16.203125 0.046875 16.085938 C 1.914062 7.03125 1.929688 7.039062 1.953125 6.898438 C 2.5 4.328125 3.71875 3.382812 5.53125 2.773438 L 11 0.953125 C 11 0.953125 15.960938 -1.164062 21.015625 0.914062 C 21.015625 0.914062 22.8125 1.734375 23.867188 3.945312 Z M 23.867188 3.945312 " transform="matrix(0.5, 0, 0, 0.5, 6.5, 8.5)"/>
</svg>
