<?xml version="1.0" encoding="UTF-8"?>
<svg xmlns="http://www.w3.org/2000/svg" xmlns:xlink="http://www.w3.org/1999/xlink" width="32pt" height="32pt" viewBox="0 0 32 32">

<path fill="none" stroke-width="2" stroke-linecap="butt" stroke-linejoin="miter" stroke="rgb(100%, 100%, 100%)" stroke-opacity="1" stroke-miterlimit="10" d="M 36 8 L 36 36 L 0 36 L 0 0 L 28 0 " transform="matrix(0.5, 0, 0, 0.5, 4.5, 9.5)"/>
<path fill="none" stroke-width="2" stroke-linecap="butt" stroke-linejoin="miter" stroke="rgb(100%, 100%, 100%)" stroke-opacity="1" stroke-miterlimit="10" d="M 22 0 L 0 22 L 0 25 L 3 25 L 25 3 " transform="matrix(0.5, 0, 0, 0.5, 12.5, 7)"/>
<path fill="none" stroke-width="2" stroke-linecap="butt" stroke-linejoin="miter" stroke="rgb(100%, 100%, 100%)" stroke-opacity="1" stroke-miterlimit="10" d="M 0 0 L 3 3 Z M 0 0 " transform="matrix(0.5, 0, 0, 0.5, 12.5, 18)"/>

<path fill="none" stroke-width="2" stroke-linecap="butt" stroke-linejoin="miter" stroke="rgb(100%, 100%, 100%)" stroke-opacity="1" stroke-miterlimit="10" d="M 4.132812 2.296875 C 4.523438 2.6875 4.523438 3.3125 4.132812 3.710938 L 4.132812 3.703125 L 3.40625 4.421875 L 0 1.015625 L 0.71875 0.296875 C 1.109375 -0.101562 1.742188 -0.101562 2.132812 0.296875 Z M 4.132812 2.296875 " transform="matrix(0.5, 0, 0, 0.5, 24.5, 5.5)"/>
</svg>
