<?xml version="1.0" encoding="UTF-8"?>
<svg xmlns="http://www.w3.org/2000/svg" xmlns:xlink="http://www.w3.org/1999/xlink" width="32pt" height="32pt" viewBox="0 0 32 32">
<path fill="none" stroke-width="2" stroke-linecap="round" stroke-linejoin="round" stroke="rgb(100%, 100%, 100%)" stroke-opacity="1" stroke-miterlimit="10" d="M 28 18 C 28 19.03125 27.476562 19.945312 26.679688 20.484375 L 4.757812 35.429688 C 4.242188 35.757812 3.65625 36 3 36 C 1.34375 36 0 34.65625 0 33 L 0 3 C 0 1.34375 1.34375 0 3 0 C 3.65625 0 4.242188 0.242188 4.757812 0.570312 L 26.679688 15.515625 C 27.476562 16.054688 28 16.96875 28 18 Z M 28 18 " transform="matrix(0.5, 0, 0, 0.5, 16.5, 7.5)"/>
<path fill="none" stroke-width="2" stroke-linecap="round" stroke-linejoin="round" stroke="rgb(100%, 100%, 100%)" stroke-opacity="1" stroke-miterlimit="10" d="M 28 18 C 28 19.03125 27.476562 19.945312 26.679688 20.484375 L 4.757812 35.429688 C 4.242188 35.757812 3.65625 36 3 36 C 1.34375 36 0 34.65625 0 33 L 0 3 C 0 1.34375 1.34375 0 3 0 C 3.65625 0 4.242188 0.242188 4.757812 0.570312 L 26.679688 15.515625 C 27.476562 16.054688 28 16.96875 28 18 Z M 28 18 " transform="matrix(0.5, 0, 0, 0.5, 1.5, 7.5)"/>
</svg>
