<?xml version="1.0" encoding="UTF-8"?>
<svg xmlns="http://www.w3.org/2000/svg" xmlns:xlink="http://www.w3.org/1999/xlink" width="32pt" height="32pt" viewBox="0 0 32 32">
<path fill="none" stroke-width="2" stroke-linecap="butt" stroke-linejoin="round" stroke="rgb(100%, 100%, 100%)" stroke-opacity="1" stroke-miterlimit="10" d="M 32 3 C 32 1.34375 30.65625 0 29 0 L 3 0 C 1.34375 0 0 1.34375 0 3 L 0 4 L 32 4 Z M 32 3 " transform="matrix(0.5, 0, 0, 0.5, 7.5, 27.5)"/>
<path fill="none" stroke-width="2" stroke-linecap="round" stroke-linejoin="round" stroke="rgb(100%, 100%, 100%)" stroke-opacity="1" stroke-miterlimit="10" d="M 0 18 L 6 0 L 12 18 Z M 0 18 " transform="matrix(0.5, 0, 0, 0.5, 21.5, 7.5)"/>
<path fill="none" stroke-width="2" stroke-linecap="round" stroke-linejoin="round" stroke="rgb(100%, 100%, 100%)" stroke-opacity="1" stroke-miterlimit="10" d="M 16 0 C 16 4.421875 12.421875 8 8 8 C 3.578125 8 0 4.421875 0 0 Z M 16 0 " transform="matrix(0.5, 0, 0, 0.5, 20.5, 16.5)"/>
<path fill="none" stroke-width="2" stroke-linecap="round" stroke-linejoin="round" stroke="rgb(100%, 100%, 100%)" stroke-opacity="1" stroke-miterlimit="10" d="M 0 18 L 6 0 L 12 18 Z M 0 18 " transform="matrix(0.5, 0, 0, 0.5, 3.5, 7.5)"/>
<path fill="none" stroke-width="2" stroke-linecap="round" stroke-linejoin="round" stroke="rgb(100%, 100%, 100%)" stroke-opacity="1" stroke-miterlimit="10" d="M 16 0 C 16 4.421875 12.421875 8 8 8 C 3.578125 8 0 4.421875 0 0 Z M 16 0 " transform="matrix(0.5, 0, 0, 0.5, 2.5, 16.5)"/>
<path fill="none" stroke-width="2" stroke-linecap="round" stroke-linejoin="round" stroke="rgb(100%, 100%, 100%)" stroke-opacity="1" stroke-miterlimit="10" d="M 0 0 L 18 0 Z M 0 0 " transform="matrix(0.5, 0, 0, 0.5, 16.5, 6.5)"/>
<path fill="none" stroke-width="2" stroke-linecap="round" stroke-linejoin="round" stroke="rgb(100%, 100%, 100%)" stroke-opacity="1" stroke-miterlimit="10" d="M 18 0 L 0 0 Z M 18 0 " transform="matrix(0.5, 0, 0, 0.5, 5.5, 6.5)"/>
<path fill="none" stroke-width="2" stroke-linecap="round" stroke-linejoin="round" stroke="rgb(100%, 100%, 100%)" stroke-opacity="1" stroke-miterlimit="10" d="M 0 0 L 0 39 Z M 0 0 " transform="matrix(0.5, 0, 0, 0.5, 15.5, 7.5)"/>
<path fill="none" stroke-width="2" stroke-linecap="round" stroke-linejoin="round" stroke="rgb(100%, 100%, 100%)" stroke-opacity="1" stroke-miterlimit="10" d="M 0 6 L 0 0 Z M 0 6 " transform="matrix(0.5, 0, 0, 0.5, 15.5, 2.5)"/>
<path fill="none" stroke-width="2" stroke-linecap="butt" stroke-linejoin="round" stroke="rgb(100%, 100%, 100%)" stroke-opacity="1" stroke-miterlimit="10" d="M 4 2 C 4 0.898438 3.101562 0 2 0 C 0.898438 0 0 0.898438 0 2 C 0 3.101562 0.898438 4 2 4 C 3.101562 4 4 3.101562 4 2 Z M 4 2 " transform="matrix(0.5, 0, 0, 0.5, 14.5, 5.5)"/>
</svg>
