<?xml version="1.0" encoding="UTF-8"?>
<svg xmlns="http://www.w3.org/2000/svg" xmlns:xlink="http://www.w3.org/1999/xlink" width="32pt" height="32pt" viewBox="0 0 32 32">
<path fill="none" stroke-width="2" stroke-linecap="round" stroke-linejoin="round" stroke="rgb(100%, 100%, 100%)" stroke-opacity="1" stroke-miterlimit="10" d="M 0 12 L 0 11 C 0 4.921875 4.921875 0 11 0 L 54 0 " transform="matrix(0.5, 0, 0, 0.5, 2.5, 9.5)"/>
<path fill="none" stroke-width="2" stroke-linecap="round" stroke-linejoin="round" stroke="rgb(100%, 100%, 100%)" stroke-opacity="1" stroke-miterlimit="10" d="M 0 0 L 6 6 L 0 12 " transform="matrix(0.5, 0, 0, 0.5, 26.5, 6.5)"/>
<path fill="none" stroke-width="2" stroke-linecap="round" stroke-linejoin="round" stroke="rgb(100%, 100%, 100%)" stroke-opacity="1" stroke-miterlimit="10" d="M 54 0 L 54 1 C 54 7.070312 49.070312 12 43 12 L 0 12 " transform="matrix(0.5, 0, 0, 0.5, 2.5, 16.5)"/>
<path fill="none" stroke-width="2" stroke-linecap="round" stroke-linejoin="round" stroke="rgb(100%, 100%, 100%)" stroke-opacity="1" stroke-miterlimit="10" d="M 6 12 L 0 6 L 6 0 " transform="matrix(0.5, 0, 0, 0.5, 2.5, 19.5)"/>
</svg>
