<?xml version="1.0" encoding="UTF-8"?>
<svg xmlns="http://www.w3.org/2000/svg" xmlns:xlink="http://www.w3.org/1999/xlink" width="32pt" height="32pt" viewBox="0 0 32 32">
<path fill="none" stroke-width="2" stroke-linecap="round" stroke-linejoin="round" stroke="rgb(100%, 100%, 100%)" stroke-opacity="1" stroke-miterlimit="10" d="M 40 0.6 C 38 -1.4 25 1.6 17 9.6 C 9 17.6 0 34.6 0 34.6 L 6 40.6 C 6 40.6 23 31.6 31 23.6 C 39 15.6 42 2.6 40 0.6 Z M 40 0.6 " transform="matrix(0.5, 0, 0, 0.5, 10, 1.7)"/>
<path fill="none" stroke-width="2" stroke-linecap="round" stroke-linejoin="round" stroke="rgb(100%, 100%, 100%)" stroke-opacity="1" stroke-miterlimit="10" d="M 22.492188 0 L 12 0 L 0 10 L 16.578125 10 Z M 22.492188 0 " transform="matrix(0.5, 0, 0, 0.5, 2.5, 12.5)"/>
<path fill="none" stroke-width="2" stroke-linecap="round" stroke-linejoin="round" stroke="rgb(100%, 100%, 100%)" stroke-opacity="1" stroke-miterlimit="10" d="M 10 0.0008125 L 10 10.493 L 0 22.493 L 0 5.914875 Z M 10 0.0008125 " transform="matrix(0.5, 0, 0, 0.5, 14.5, 18.2535)"/>
<path fill="none" stroke-width="2" stroke-linecap="round" stroke-linejoin="round" stroke="rgb(100%, 100%, 100%)" stroke-opacity="1" stroke-miterlimit="10" d="M 0 16 L 16 0 Z M 0 16 " transform="matrix(0.5, 0, 0, 0.5, 8.5, 15.5)"/>
<path fill="none" stroke-width="2" stroke-linecap="round" stroke-linejoin="round" stroke="rgb(100%, 100%, 100%)" stroke-opacity="1" stroke-miterlimit="10" d="M 8 4 C 8 6.210938 6.210938 8 4 8 C 1.789062 8 0 6.210938 0 4 C 0 1.789062 1.789062 0 4 0 C 6.210938 0 8 1.789062 8 4 Z M 8 4 " transform="matrix(0.5, 0, 0, 0.5, 21.5, 6.5)"/>
<path fill="none" stroke-width="2" stroke-linecap="round" stroke-linejoin="round" stroke="rgb(100%, 100%, 100%)" stroke-opacity="1" stroke-miterlimit="10" d="M 20 6 C 20 17 0 20 0 20 C 0 20 3 0 14 0 " transform="matrix(0.5, 0, 0, 0.5, 1.5, 20.5)"/>
</svg>
