<?xml version="1.0" encoding="UTF-8"?>
<svg xmlns="http://www.w3.org/2000/svg" xmlns:xlink="http://www.w3.org/1999/xlink" width="32pt" height="32pt" viewBox="0 0 32 32">
<path fill="none" stroke-width="2" stroke-linecap="round" stroke-linejoin="round" stroke="rgb(100%, 100%, 100%)" stroke-opacity="1" stroke-miterlimit="10" d="M 6 3 C 6 4.65625 4.65625 6 3 6 C 1.34375 6 0 4.65625 0 3 C 0 1.34375 1.34375 0 3 0 C 4.65625 0 6 1.34375 6 3 Z M 6 3 " transform="matrix(0.5, 0, 0, 0.5, 14.5, 14.5)"/>
<path fill="none" stroke-width="2" stroke-linecap="round" stroke-linejoin="round" stroke="rgb(100%, 100%, 100%)" stroke-opacity="1" stroke-miterlimit="10" d="M 0 12 L 0 0 L 12 0 " transform="matrix(0.5, 0, 0, 0.5, 19.5, 19.5)"/>
<path fill="none" stroke-width="2" stroke-linecap="round" stroke-linejoin="round" stroke="rgb(100%, 100%, 100%)" stroke-opacity="1" stroke-miterlimit="10" d="M 18 18 L 0 0 Z M 18 18 " transform="matrix(0.5, 0, 0, 0.5, 19.5, 19.5)"/>
<path fill="none" stroke-width="2" stroke-linecap="round" stroke-linejoin="round" stroke="rgb(100%, 100%, 100%)" stroke-opacity="1" stroke-miterlimit="10" d="M 0 0 L 0 12 L 12 12 " transform="matrix(0.5, 0, 0, 0.5, 19.5, 6.5)"/>
<path fill="none" stroke-width="2" stroke-linecap="round" stroke-linejoin="round" stroke="rgb(100%, 100%, 100%)" stroke-opacity="1" stroke-miterlimit="10" d="M 18 0 L 0 18 Z M 18 0 " transform="matrix(0.5, 0, 0, 0.5, 19.5, 3.5)"/>
<path fill="none" stroke-width="2" stroke-linecap="round" stroke-linejoin="round" stroke="rgb(100%, 100%, 100%)" stroke-opacity="1" stroke-miterlimit="10" d="M 12 12 L 12 0 L 0 0 " transform="matrix(0.5, 0, 0, 0.5, 6.5, 19.5)"/>
<path fill="none" stroke-width="2" stroke-linecap="round" stroke-linejoin="round" stroke="rgb(100%, 100%, 100%)" stroke-opacity="1" stroke-miterlimit="10" d="M 0 18 L 18 0 Z M 0 18 " transform="matrix(0.5, 0, 0, 0.5, 3.5, 19.5)"/>
<path fill="none" stroke-width="2" stroke-linecap="round" stroke-linejoin="round" stroke="rgb(100%, 100%, 100%)" stroke-opacity="1" stroke-miterlimit="10" d="M 12 0 L 12 12 L 0 12 " transform="matrix(0.5, 0, 0, 0.5, 6.5, 6.5)"/>
<path fill="none" stroke-width="2" stroke-linecap="round" stroke-linejoin="round" stroke="rgb(100%, 100%, 100%)" stroke-opacity="1" stroke-miterlimit="10" d="M 0 0 L 18 18 Z M 0 0 " transform="matrix(0.5, 0, 0, 0.5, 3.5, 3.5)"/>
</svg>
