<?xml version="1.0" encoding="UTF-8"?>
<svg xmlns="http://www.w3.org/2000/svg" xmlns:xlink="http://www.w3.org/1999/xlink" width="32pt" height="32pt" viewBox="0 0 32 32">
<path fill="none" stroke-width="2" stroke-linecap="round" stroke-linejoin="round" stroke="rgb(100%, 100%, 100%)" stroke-opacity="1" stroke-miterlimit="10" d="M 0 1.734687 L 1 0.0003125 Z M 0 1.734687 " transform="matrix(0.5, 0, 0, 0.5, 10, 25.16)"/>
<path fill="none" stroke-width="2" stroke-linecap="round" stroke-linejoin="round" stroke="rgb(100%, 100%, 100%)" stroke-opacity="1" stroke-miterlimit="10" d="M 1.734687 0 L 0.0003125 1 Z M 1.734687 0 " transform="matrix(0.5, 0, 0, 0.5, 24.16, 11)"/>
<path fill="none" stroke-width="2" stroke-linecap="round" stroke-linejoin="round" stroke="rgb(100%, 100%, 100%)" stroke-opacity="1" stroke-miterlimit="10" d="M -0.0016875 1 L 1.732687 0 Z M -0.0016875 1 " transform="matrix(0.5, 0, 0, 0.5, 5.9735, 21.5)"/>
<path fill="none" stroke-width="2" stroke-linecap="round" stroke-linejoin="round" stroke="rgb(100%, 100%, 100%)" stroke-opacity="1" stroke-miterlimit="10" d="M 2 0 L 0 0 Z M 2 0 " transform="matrix(0.5, 0, 0, 0.5, 25.5, 16.5)"/>
<path fill="none" stroke-width="2" stroke-linecap="round" stroke-linejoin="round" stroke="rgb(100%, 100%, 100%)" stroke-opacity="1" stroke-miterlimit="10" d="M 0 0 L 2 0 Z M 0 0 " transform="matrix(0.5, 0, 0, 0.5, 4.5, 16.5)"/>
<path fill="none" stroke-width="2" stroke-linecap="round" stroke-linejoin="round" stroke="rgb(100%, 100%, 100%)" stroke-opacity="1" stroke-miterlimit="10" d="M 1.734687 1 L 0.0003125 0 Z M 1.734687 1 " transform="matrix(0.5, 0, 0, 0.5, 24.16, 21.5)"/>
<path fill="none" stroke-width="2" stroke-linecap="round" stroke-linejoin="round" stroke="rgb(100%, 100%, 100%)" stroke-opacity="1" stroke-miterlimit="10" d="M -0.0016875 0 L 1.732687 1 Z M -0.0016875 0 " transform="matrix(0.5, 0, 0, 0.5, 5.9735, 11)"/>
<path fill="none" stroke-width="2" stroke-linecap="round" stroke-linejoin="round" stroke="rgb(100%, 100%, 100%)" stroke-opacity="1" stroke-miterlimit="10" d="M 1 1.734687 L 0 0.0003125 Z M 1 1.734687 " transform="matrix(0.5, 0, 0, 0.5, 20.5, 25.16)"/>
<path fill="none" stroke-width="2" stroke-linecap="round" stroke-linejoin="round" stroke="rgb(100%, 100%, 100%)" stroke-opacity="1" stroke-miterlimit="10" d="M 0 -0.0016875 L 1 1.732687 Z M 0 -0.0016875 " transform="matrix(0.5, 0, 0, 0.5, 10, 6.9735)"/>
<path fill="none" stroke-width="2" stroke-linecap="round" stroke-linejoin="round" stroke="rgb(100%, 100%, 100%)" stroke-opacity="1" stroke-miterlimit="10" d="M 0 2 L 0 0 Z M 0 2 " transform="matrix(0.5, 0, 0, 0.5, 15.5, 26.5)"/>
<path fill="none" stroke-width="2" stroke-linecap="round" stroke-linejoin="round" stroke="rgb(100%, 100%, 100%)" stroke-opacity="1" stroke-miterlimit="10" d="M 0 0 L 0 2 Z M 0 0 " transform="matrix(0.5, 0, 0, 0.5, 15.5, 5.5)"/>
<path fill="none" stroke-width="2" stroke-linecap="round" stroke-linejoin="round" stroke="rgb(100%, 100%, 100%)" stroke-opacity="1" stroke-miterlimit="10" d="M 0 0 L 10 12 Z M 0 0 " transform="matrix(0.5, 0, 0, 0.5, 15.5, 16.5)"/>
<path fill="none" stroke-width="2" stroke-linecap="round" stroke-linejoin="round" stroke="rgb(100%, 100%, 100%)" stroke-opacity="1" stroke-miterlimit="10" d="M 0 0 L 0 16 Z M 0 0 " transform="matrix(0.5, 0, 0, 0.5, 15.5, 8.5)"/>
<path fill="none" stroke-width="2" stroke-linecap="round" stroke-linejoin="round" stroke="rgb(100%, 100%, 100%)" stroke-opacity="1" stroke-miterlimit="10" d="M 0 26 C 0 40.359375 11.640625 52 26 52 C 40.359375 52 52 40.359375 52 26 C 52 11.640625 40.359375 0 26 0 C 11.640625 0 0 11.640625 0 26 Z M 0 26 " transform="matrix(0.5, 0, 0, 0.5, 2.5, 3.5)"/>
<path fill="none" stroke-width="2" stroke-linecap="round" stroke-linejoin="round" stroke="rgb(100%, 100%, 100%)" stroke-opacity="1" stroke-miterlimit="10" d="M 1 -0.0016875 L 0 1.732687 Z M 1 -0.0016875 " transform="matrix(0.5, 0, 0, 0.5, 20.5, 6.9735)"/>
</svg>
