<?xml version="1.0" encoding="UTF-8"?>
<svg xmlns="http://www.w3.org/2000/svg" xmlns:xlink="http://www.w3.org/1999/xlink" width="32pt" height="32pt" viewBox="0 0 32 32">
<path fill="none" stroke-width="2" stroke-linecap="round" stroke-linejoin="round" stroke="rgb(100%, 100%, 100%)" stroke-opacity="1" stroke-miterlimit="10" d="M 0 0 L 0 20 Z M 0 0 " transform="matrix(0.5, 0, 0, 0.5, 15.5, 15.5)"/>
<path fill="none" stroke-width="2" stroke-linecap="round" stroke-linejoin="round" stroke="rgb(100%, 100%, 100%)" stroke-opacity="1" stroke-miterlimit="10" d="M 0 12 C 0 14.210938 2.234375 16 5 16 C 7.765625 16 10 14.210938 10 12 C 10 9.789062 7.765625 8 5 8 C 2.234375 8 0 6.210938 0 4 C 0 1.789062 2.234375 0 5 0 C 7.765625 0 10 1.789062 10 4 " transform="matrix(0.5, 0, 0, 0.5, 13, 16.5)"/>
<path fill="none" stroke-width="2" stroke-linecap="round" stroke-linejoin="round" stroke="rgb(100%, 100%, 100%)" stroke-opacity="1" stroke-miterlimit="10" d="M 26.804688 0 C 35.71875 3.59375 44 16.101562 44 25 C 44 35.492188 31.492188 38 21 38 C 10.507812 38 0 35.492188 0 25 C 0 16.101562 8.28125 3.59375 17.195312 0 " transform="matrix(0.5, 0, 0, 0.5, 4.5, 10.5)"/>
<path fill="none" stroke-width="2" stroke-linecap="round" stroke-linejoin="round" stroke="rgb(100%, 100%, 100%)" stroke-opacity="1" stroke-miterlimit="10" d="M 2 4 C 0.898438 4 0 3.101562 0 2 C 0 0.898438 0.898438 0 2 0 L 14 0 C 15.101562 0 16 0.898438 16 2 C 16 3.101562 15.101562 4 14 4 Z M 2 4 " transform="matrix(0.5, 0, 0, 0.5, 11.5, 8.5)"/>
<path fill="none" stroke-width="2" stroke-linecap="round" stroke-linejoin="round" stroke="rgb(100%, 100%, 100%)" stroke-opacity="1" stroke-miterlimit="10" d="M 8 12 C 8 6 0 2 0 2 C 0 2 1 0 7 0 C 9.679688 0 16.46875 2 19 2 C 23 2 28 0 28 0 C 28 0 20 6 20 12 Z M 8 12 " transform="matrix(0.5, 0, 0, 0.5, 8.5, 2.5)"/>
</svg>
