<?xml version="1.0" encoding="UTF-8"?>
<svg xmlns="http://www.w3.org/2000/svg" xmlns:xlink="http://www.w3.org/1999/xlink" width="32pt" height="32pt" viewBox="0 0 32 32">
<path fill="none" stroke-width="2" stroke-linecap="round" stroke-linejoin="round" stroke="rgb(100%, 100%, 100%)" stroke-opacity="1" stroke-miterlimit="10" d="M 16 10 C 16 15.007812 13.601562 22 7.960938 22 C 2.3125 22 0 15.007812 0 10 C 0 4.554688 1.507812 0 7.960938 0 C 14.40625 0 16 4.554688 16 10 Z M 16 10 " transform="matrix(0.5, 0, 0, 0.5, 12, 8.5)"/>
<path fill="none" stroke-width="2" stroke-linecap="round" stroke-linejoin="round" stroke="rgb(100%, 100%, 100%)" stroke-opacity="1" stroke-miterlimit="10" d="M 27.117188 0 C 36.1875 0.90625 37 4.421875 38 11.421875 C 38 13.671875 29.96875 14.421875 18.953125 14.421875 C 7.929688 14.421875 0 13.671875 0 11.421875 C 1 4.421875 1.71875 0.90625 10.789062 0 " transform="matrix(0.5, 0, 0, 0.5, 6.5, 19.5)"/>
<path fill="none" stroke-width="2" stroke-linecap="round" stroke-linejoin="round" stroke="rgb(100%, 100%, 100%)" stroke-opacity="1" stroke-miterlimit="10" d="M 9 11.679688 C 3.640625 11.210938 0 10.328125 0 9 C 0.710938 3.304688 2 1 9 0 " transform="matrix(0.5, 0, 0, 0.5, 1.5, 14.5)"/>
<path fill="none" stroke-width="2" stroke-linecap="round" stroke-linejoin="round" stroke="rgb(100%, 100%, 100%)" stroke-opacity="1" stroke-miterlimit="10" d="M 6 18 C 1.734375 17.375 0 12.21875 0 8.226562 C 0 3.617188 1.398438 0 7 0 C 10.171875 0 11.992188 1.15625 12.984375 3.007812 " transform="matrix(0.5, 0, 0, 0.5, 6.5, 5.5)"/>
<path fill="none" stroke-width="2" stroke-linecap="round" stroke-linejoin="round" stroke="rgb(100%, 100%, 100%)" stroke-opacity="1" stroke-miterlimit="10" d="M 0 11.679688 C 5.359375 11.210938 9.015625 10.328125 9.015625 9 C 8.304688 3.304688 7 1 0 0 " transform="matrix(0.5, 0, 0, 0.5, 26, 14.5)"/>
<path fill="none" stroke-width="2" stroke-linecap="round" stroke-linejoin="round" stroke="rgb(100%, 100%, 100%)" stroke-opacity="1" stroke-miterlimit="10" d="M 6.984375 18 C 11.25 17.375 12.984375 12.21875 12.984375 8.226562 C 12.984375 3.617188 11.578125 0 5.984375 0 C 2.8125 0 0.984375 1.15625 0 3.007812 " transform="matrix(0.5, 0, 0, 0.5, 19, 5.5)"/>
</svg>
