<?xml version="1.0" encoding="UTF-8"?>
<svg xmlns="http://www.w3.org/2000/svg" xmlns:xlink="http://www.w3.org/1999/xlink" width="32pt" height="32pt" viewBox="0 0 32 32">
<path fill="none" stroke-width="2" stroke-linecap="round" stroke-linejoin="round" stroke="rgb(100%, 100%, 100%)" stroke-opacity="1" stroke-miterlimit="10" d="M 0 0 L 20 0 L 20 32 L 0 32 Z M 0 0 " transform="matrix(0.5, 0, 0, 0.5, 0.5, 11.5)"/>
<path fill="none" stroke-width="2" stroke-linecap="round" stroke-linejoin="round" stroke="rgb(100%, 100%, 100%)" stroke-opacity="1" stroke-miterlimit="10" d="M 0 0 L 20 0 L 20 44 L 0 44 Z M 0 0 " transform="matrix(0.5, 0, 0, 0.5, 10.5, 5.5)"/>
<path fill="none" stroke-width="2" stroke-linecap="round" stroke-linejoin="round" stroke="rgb(100%, 100%, 100%)" stroke-opacity="1" stroke-miterlimit="10" d="M 0 0 L 20 0 L 20 20 L 0 20 Z M 0 0 " transform="matrix(0.5, 0, 0, 0.5, 20.5, 17.5)"/>
<path fill="none" stroke-width="2" stroke-linecap="round" stroke-linejoin="round" stroke="rgb(100%, 100%, 100%)" stroke-opacity="1" stroke-miterlimit="10" d="M 0 2 L 2 0 L 2 8 " transform="matrix(0.5, 0, 0, 0.5, 14.5, 8.5)"/>
<path fill="none" stroke-width="2" stroke-linecap="round" stroke-linejoin="round" stroke="rgb(100%, 100%, 100%)" stroke-opacity="1" stroke-miterlimit="10" d="M 0 0 L 4 0 Z M 0 0 " transform="matrix(0.5, 0, 0, 0.5, 14.5, 12.5)"/>
<path fill="none" stroke-width="2" stroke-linecap="round" stroke-linejoin="round" stroke="rgb(100%, 100%, 100%)" stroke-opacity="1" stroke-miterlimit="10" d="M 4 8 L 0 8 L 0 6 C 0 4.898438 0.898438 4 2 4 C 3.101562 4 4 3.101562 4 2 C 4 0.898438 3.101562 0 2 0 L 0 0 " transform="matrix(0.5, 0, 0, 0.5, 4.5, 14.5)"/>
<path fill="none" stroke-width="2" stroke-linecap="round" stroke-linejoin="round" stroke="rgb(100%, 100%, 100%)" stroke-opacity="1" stroke-miterlimit="10" d="M 0 4 C 1.101562 4 2 3.101562 2 2 C 2 0.898438 1.101562 0 0 0 " transform="matrix(0.5, 0, 0, 0.5, 25.5, 20.5)"/>
<path fill="none" stroke-width="2" stroke-linecap="round" stroke-linejoin="round" stroke="rgb(100%, 100%, 100%)" stroke-opacity="1" stroke-miterlimit="10" d="M 0 4 C 1.101562 4 2 3.101562 2 2 C 2 0.898438 1.101562 0 0 0 " transform="matrix(0.5, 0, 0, 0.5, 25.5, 22.5)"/>
<path fill="none" stroke-width="2" stroke-linecap="round" stroke-linejoin="round" stroke="rgb(100%, 100%, 100%)" stroke-opacity="1" stroke-miterlimit="10" d="M 0 0 L 2 0 Z M 0 0 " transform="matrix(0.5, 0, 0, 0.5, 24.5, 20.5)"/>
<path fill="none" stroke-width="2" stroke-linecap="round" stroke-linejoin="round" stroke="rgb(100%, 100%, 100%)" stroke-opacity="1" stroke-miterlimit="10" d="M 2 0 L 0 0 Z M 2 0 " transform="matrix(0.5, 0, 0, 0.5, 24.5, 22.5)"/>
<path fill="none" stroke-width="2" stroke-linecap="round" stroke-linejoin="round" stroke="rgb(100%, 100%, 100%)" stroke-opacity="1" stroke-miterlimit="10" d="M 2 0 L 0 0 Z M 2 0 " transform="matrix(0.5, 0, 0, 0.5, 24.5, 24.5)"/>
</svg>
