<?xml version="1.0" encoding="UTF-8"?>
<svg xmlns="http://www.w3.org/2000/svg" xmlns:xlink="http://www.w3.org/1999/xlink" width="32pt" height="32pt" viewBox="0 0 32 32">
<path fill="none" stroke-width="2" stroke-linecap="round" stroke-linejoin="round" stroke="rgb(0%, 0%, 0%)" stroke-opacity="1" stroke-miterlimit="10" d="M 0 0 L 0 32 L 4 32 L 4 0 Z M 0 0 " transform="matrix(0.5, 0, 0, 0.5, 2.5, 10.5)"/>
<path fill="none" stroke-width="2" stroke-linecap="round" stroke-linejoin="round" stroke="rgb(0%, 0%, 0%)" stroke-opacity="1" stroke-miterlimit="10" d="M 0 0 L 0 8 L 54 8 L 54 0 Z M 0 0 " transform="matrix(0.5, 0, 0, 0.5, 2.5, 6.5)"/>
<path fill="none" stroke-width="2" stroke-linecap="round" stroke-linejoin="round" stroke="rgb(0%, 0%, 0%)" stroke-opacity="1" stroke-miterlimit="10" d="M 0 0 L 0 32 L 4 32 L 4 0 Z M 0 0 " transform="matrix(0.5, 0, 0, 0.5, 27.5, 10.5)"/>
<path fill="none" stroke-width="2" stroke-linecap="round" stroke-linejoin="round" stroke="rgb(0%, 0%, 0%)" stroke-opacity="1" stroke-miterlimit="10" d="M 0 0 L 62 0 Z M 0 0 " transform="matrix(0.5, 0, 0, 0.5, 0.5, 6.5)"/>
</svg>
