<?xml version="1.0" encoding="UTF-8"?>
<svg xmlns="http://www.w3.org/2000/svg" xmlns:xlink="http://www.w3.org/1999/xlink" width="32pt" height="32pt" viewBox="0 0 32 32">
<path fill="none" stroke-width="2" stroke-linecap="round" stroke-linejoin="round" stroke="rgb(0%, 0%, 0%)" stroke-opacity="1" stroke-miterlimit="10" d="M 24 0 C 22.890625 2.28125 17.804688 4 12 4 C 6.203125 4 1.117188 2.289062 0 0.0078125 " transform="matrix(0.5, 0, 0, 0.5, 17.5, 18.5)"/>
<path fill="none" stroke-width="2" stroke-linecap="round" stroke-linejoin="round" stroke="rgb(0%, 0%, 0%)" stroke-opacity="1" stroke-miterlimit="10" d="M 24 0 C 22.890625 2.28125 17.804688 4 12 4 C 6.203125 4 1.117188 2.289062 0 0.0078125 " transform="matrix(0.5, 0, 0, 0.5, 17.5, 16.5)"/>
<path fill="none" stroke-width="2" stroke-linecap="round" stroke-linejoin="round" stroke="rgb(0%, 0%, 0%)" stroke-opacity="1" stroke-miterlimit="10" d="M 24 0 C 22.890625 2.28125 17.804688 4 12 4 C 6.203125 4 1.117188 2.289062 0 0.0078125 " transform="matrix(0.5, 0, 0, 0.5, 3.5, 26.5)"/>
<path fill="none" stroke-width="2" stroke-linecap="round" stroke-linejoin="round" stroke="rgb(0%, 0%, 0%)" stroke-opacity="1" stroke-miterlimit="10" d="M 24 0 C 22.890625 2.28125 17.804688 4 12 4 C 6.203125 4 1.117188 2.289062 0 0.0078125 " transform="matrix(0.5, 0, 0, 0.5, 3.5, 24.5)"/>
<path fill="none" stroke-width="2" stroke-linecap="round" stroke-linejoin="round" stroke="rgb(0%, 0%, 0%)" stroke-opacity="1" stroke-miterlimit="10" d="M 24 0 C 22.890625 2.28125 17.804688 4 12 4 C 6.203125 4 1.117188 2.289062 0 0.0078125 " transform="matrix(0.5, 0, 0, 0.5, 3.5, 22.5)"/>
<path fill="none" stroke-width="2" stroke-linecap="round" stroke-linejoin="round" stroke="rgb(0%, 0%, 0%)" stroke-opacity="1" stroke-miterlimit="10" d="M 24 0 C 22.890625 2.28125 17.804688 4 12 4 C 6.203125 4 1.117188 2.289062 0 0.0078125 " transform="matrix(0.5, 0, 0, 0.5, 3.5, 20.5)"/>
<path fill="none" stroke-width="2" stroke-linecap="round" stroke-linejoin="round" stroke="rgb(0%, 0%, 0%)" stroke-opacity="1" stroke-miterlimit="10" d="M 24 5 C 24 7.765625 18.625 10 12 10 C 5.375 10 0 7.765625 0 5 C 0 2.234375 5.375 0 12 0 C 18.625 0 24 2.234375 24 5 Z M 24 5 " transform="matrix(0.5, 0, 0, 0.5, 3.5, 15.5)"/>
<path fill="none" stroke-width="2" stroke-linecap="round" stroke-linejoin="round" stroke="rgb(0%, 0%, 0%)" stroke-opacity="1" stroke-miterlimit="10" d="M 24 5 C 24 7.765625 18.625 10 12 10 C 5.375 10 0 7.765625 0 5 C 0 2.234375 5.375 0 12 0 C 18.625 0 24 2.234375 24 5 Z M 24 5 " transform="matrix(0.5, 0, 0, 0.5, 17.5, 11.5)"/>
<path fill="none" stroke-width="2" stroke-linecap="round" stroke-linejoin="round" stroke="rgb(0%, 0%, 0%)" stroke-opacity="1" stroke-miterlimit="10" d="M 24 5 C 24 7.765625 18.625 10 12 10 C 5.375 10 0 7.765625 0 5 C 0 2.234375 5.375 0 12 0 C 18.625 0 24 2.234375 24 5 Z M 24 5 " transform="matrix(0.5, 0, 0, 0.5, 9.5, 3.5)"/>
<path fill="none" stroke-width="2" stroke-linecap="round" stroke-linejoin="round" stroke="rgb(0%, 0%, 0%)" stroke-opacity="1" stroke-miterlimit="10" d="M 12 3.992 C 6.203125 3.992 1.117188 2.281062 0 -0.0001875 " transform="matrix(0.5, 0, 0, 0.5, 9.5, 12.504)"/>
<path fill="none" stroke-width="2" stroke-linecap="round" stroke-linejoin="round" stroke="rgb(0%, 0%, 0%)" stroke-opacity="1" stroke-miterlimit="10" d="M 13.0625 3.968562 C 12.710938 3.984187 12.359375 3.992 12 3.992 C 6.203125 3.992 1.117188 2.281062 0 -0.0001875 " transform="matrix(0.5, 0, 0, 0.5, 9.5, 10.504)"/>
<path fill="none" stroke-width="2" stroke-linecap="round" stroke-linejoin="round" stroke="rgb(0%, 0%, 0%)" stroke-opacity="1" stroke-miterlimit="10" d="M 24 0 C 22.890625 2.28125 17.804688 4 12 4 C 6.203125 4 1.117188 2.289062 0 0.0078125 " transform="matrix(0.5, 0, 0, 0.5, 9.5, 8.5)"/>
<path fill="none" stroke-width="2" stroke-linecap="round" stroke-linejoin="round" stroke="rgb(0%, 0%, 0%)" stroke-opacity="1" stroke-miterlimit="10" d="M 24 0 C 22.890625 2.28125 17.804688 4 12 4 C 6.203125 4 1.117188 2.289062 0 0.0078125 " transform="matrix(0.5, 0, 0, 0.5, 17.5, 26.5)"/>
<path fill="none" stroke-width="2" stroke-linecap="round" stroke-linejoin="round" stroke="rgb(0%, 0%, 0%)" stroke-opacity="1" stroke-miterlimit="10" d="M 24 0 C 22.890625 2.28125 17.804688 4 12 4 C 6.203125 4 1.117188 2.289062 0 0.0078125 " transform="matrix(0.5, 0, 0, 0.5, 17.5, 24.5)"/>
<path fill="none" stroke-width="2" stroke-linecap="round" stroke-linejoin="round" stroke="rgb(0%, 0%, 0%)" stroke-opacity="1" stroke-miterlimit="10" d="M 24 0 C 22.890625 2.28125 17.804688 4 12 4 C 6.203125 4 1.117188 2.289062 0 0.0078125 " transform="matrix(0.5, 0, 0, 0.5, 17.5, 22.5)"/>
<path fill="none" stroke-width="2" stroke-linecap="round" stroke-linejoin="round" stroke="rgb(0%, 0%, 0%)" stroke-opacity="1" stroke-miterlimit="10" d="M 24 0 C 22.890625 2.28125 17.804688 4 12 4 C 6.203125 4 1.117188 2.289062 0 0.0078125 " transform="matrix(0.5, 0, 0, 0.5, 17.5, 20.5)"/>
</svg>
