<?xml version="1.0" encoding="UTF-8"?>
<svg xmlns="http://www.w3.org/2000/svg" xmlns:xlink="http://www.w3.org/1999/xlink" width="32pt" height="32pt" viewBox="0 0 32 32">
<path fill="none" stroke-width="2" stroke-linecap="round" stroke-linejoin="round" stroke="rgb(0%, 0%, 0%)" stroke-opacity="1" stroke-miterlimit="10" d="M 0 0 L 0 6 Z M 0 0 " transform="matrix(0.5, 0, 0, 0.5, 15.5, 21.5)"/>
<path fill="none" stroke-width="2" stroke-linecap="round" stroke-linejoin="round" stroke="rgb(0%, 0%, 0%)" stroke-opacity="1" stroke-miterlimit="10" d="M 0 0 L 16 0 Z M 0 0 " transform="matrix(0.5, 0, 0, 0.5, 15.5, 24.5)"/>
<path fill="none" stroke-width="2" stroke-linecap="round" stroke-linejoin="round" stroke="rgb(0%, 0%, 0%)" stroke-opacity="1" stroke-miterlimit="10" d="M 0 6 L 0 0 Z M 0 6 " transform="matrix(0.5, 0, 0, 0.5, 21.5, 21.5)"/>
<path fill="none" stroke-width="2" stroke-linecap="round" stroke-linejoin="round" stroke="rgb(0%, 0%, 0%)" stroke-opacity="1" stroke-miterlimit="10" d="M 0 2 L 0 0 L 36 0 L 36 24 L 12 24 " transform="matrix(0.5, 0, 0, 0.5, 9.5, 5.5)"/>
<path fill="none" stroke-width="2" stroke-linecap="round" stroke-linejoin="round" stroke="rgb(0%, 0%, 0%)" stroke-opacity="1" stroke-miterlimit="10" d="M 16 32 L 41 32 C 42.65625 32 44 30.65625 44 29 L 44 3 C 44 1.34375 42.65625 0 41 0 L 3 0 C 1.34375 0 0 1.34375 0 3 L 0 6 " transform="matrix(0.5, 0, 0, 0.5, 7.5, 3.5)"/>
<path fill="none" stroke-width="2" stroke-linecap="round" stroke-linejoin="round" stroke="rgb(0%, 0%, 0%)" stroke-opacity="1" stroke-miterlimit="10" d="M 22 0 L 0 0 Z M 22 0 " transform="matrix(0.5, 0, 0, 0.5, 2.5, 24.5)"/>
<path fill="none" stroke-width="2" stroke-linecap="round" stroke-linejoin="round" stroke="rgb(0%, 0%, 0%)" stroke-opacity="1" stroke-miterlimit="10" d="M 22 0 L 0 0 Z M 22 0 " transform="matrix(0.5, 0, 0, 0.5, 2.5, 12.5)"/>
<path fill="none" stroke-width="2" stroke-linecap="round" stroke-linejoin="round" stroke="rgb(0%, 0%, 0%)" stroke-opacity="1" stroke-miterlimit="10" d="M 6 0 L 0 0 Z M 6 0 " transform="matrix(0.5, 0, 0, 0.5, 6.5, 10.5)"/>
<path fill="none" stroke-width="2" stroke-linecap="round" stroke-linejoin="round" stroke="rgb(0%, 0%, 0%)" stroke-opacity="1" stroke-miterlimit="10" d="M 0 0 L 2 0 Z M 0 0 " transform="matrix(0.5, 0, 0, 0.5, 7.5, 26.5)"/>
<path fill="none" stroke-width="2" stroke-linecap="round" stroke-linejoin="round" stroke="rgb(0%, 0%, 0%)" stroke-opacity="1" stroke-miterlimit="10" d="M 22 5 L 22 35 C 22 37.765625 20 40 11 40 C 2 40 0 37.765625 0 35 L 0 5 C 0 2.234375 2 0 11 0 C 20 0 22 2.234375 22 5 Z M 22 5 " transform="matrix(0.5, 0, 0, 0.5, 2.5, 8.5)"/>
</svg>
